<?xml version="1.0" standalone="no"?>
<!DOCTYPE svg PUBLIC "-//W3C//DTD SVG 20010904//EN"
 "http://www.w3.org/TR/2001/REC-SVG-20010904/DTD/svg10.dtd">
<svg version="1.0" xmlns="http://www.w3.org/2000/svg"
 width="769.000000pt" height="769.000000pt" viewBox="0 0 769.000000 769.000000"
 preserveAspectRatio="xMidYMid meet">
<metadata>
Created by potrace 1.11, written by Peter Selinger 2001-2013
</metadata>
<g transform="translate(0.000000,769.000000) scale(0.100000,-0.100000)"
fill="#000000" stroke="none">
<path d="M3320 6414 c-19 -2 -73 -9 -120 -15 -117 -14 -288 -53 -460 -105
-520 -156 -860 -370 -1055 -664 -151 -225 -226 -474 -280 -925 -14 -115 -29
-232 -33 -259 l-7 -48 -210 -72 c-410 -140 -863 -338 -946 -413 -49 -45 -69
-86 -69 -145 1 -93 80 -191 166 -204 54 -8 111 10 269 86 66 31 154 72 195 90
41 18 93 40 115 50 22 9 72 29 110 43 39 14 114 42 168 62 54 19 112 38 129
42 26 5 30 4 25 -13 -21 -70 -39 -811 -24 -949 4 -27 9 -79 12 -115 6 -58 25
-192 40 -275 3 -16 19 -82 35 -146 164 -652 727 -1295 1275 -1457 448 -133
870 35 1197 475 94 127 157 254 218 443 l52 160 146 1 c81 0 161 2 177 4 17 2
71 6 120 10 82 5 258 29 410 55 142 24 196 5 475 -169 135 -84 338 -226 360
-252 3 -3 48 -37 100 -76 155 -115 316 -187 512 -230 125 -27 374 -24 488 5
191 50 319 138 404 277 130 215 226 651 171 782 -19 45 -66 88 -114 105 -41
15 -877 19 -944 5 -62 -13 -111 -69 -137 -157 -12 -41 -35 -116 -51 -165 -39
-120 -123 -246 -152 -228 -7 4 -78 53 -159 110 -81 57 -152 103 -157 103 -6 0
-11 4 -11 8 0 5 -11 15 -25 22 -35 19 -31 29 18 48 146 56 406 204 512 292 39
32 232 225 269 269 58 69 159 229 211 336 122 253 179 486 177 735 -2 224 -60
348 -197 422 -109 58 -345 108 -585 123 -52 4 -111 8 -130 10 -19 2 -179 4
-356 4 l-321 1 -20 73 c-11 39 -17 76 -13 81 13 14 135 17 630 17 269 0 491 5
512 10 138 35 186 229 82 332 -49 49 -80 59 -219 66 -154 7 -557 8 -918 1
l-258 -5 -90 152 c-193 331 -350 550 -507 710 -100 102 -119 119 -212 189
-105 80 -199 133 -345 195 -113 48 -291 79 -469 84 -83 2 -167 1 -186 -1z"/>
</g>
</svg>
